<svg width="16" height="16" viewBox="0 0 16 16" fill="none" xmlns="http://www.w3.org/2000/svg">
<mask id="mask0_37_51758" style="mask-type:alpha" maskUnits="userSpaceOnUse" x="0" y="0" width="16" height="16">
<rect width="16" height="16" fill="#D9D9D9"/>
</mask>
<g mask="url(#mask0_37_51758)">
<path d="M7.33325 8.66683V10.6668C7.33325 10.8557 7.39714 11.0141 7.52492 11.1418C7.6527 11.2696 7.81103 11.3335 7.99992 11.3335C8.18881 11.3335 8.34714 11.2696 8.47492 11.1418C8.6027 11.0141 8.66658 10.8557 8.66658 10.6668V8.66683H10.6666C10.8555 8.66683 11.0138 8.60294 11.1416 8.47516C11.2694 8.34738 11.3333 8.18905 11.3333 8.00016C11.3333 7.81127 11.2694 7.65294 11.1416 7.52516C11.0138 7.39738 10.8555 7.3335 10.6666 7.3335H8.66658V5.3335C8.66658 5.14461 8.6027 4.98627 8.47492 4.8585C8.34714 4.73072 8.18881 4.66683 7.99992 4.66683C7.81103 4.66683 7.6527 4.73072 7.52492 4.8585C7.39714 4.98627 7.33325 5.14461 7.33325 5.3335V7.3335H5.33325C5.14436 7.3335 4.98603 7.39738 4.85825 7.52516C4.73047 7.65294 4.66658 7.81127 4.66658 8.00016C4.66658 8.18905 4.73047 8.34738 4.85825 8.47516C4.98603 8.60294 5.14436 8.66683 5.33325 8.66683H7.33325ZM7.99992 14.6668C7.0777 14.6668 6.21103 14.4918 5.39992 14.1418C4.58881 13.7918 3.88325 13.3168 3.28325 12.7168C2.68325 12.1168 2.20825 11.4113 1.85825 10.6002C1.50825 9.78905 1.33325 8.92238 1.33325 8.00016C1.33325 7.07794 1.50825 6.21127 1.85825 5.40016C2.20825 4.58905 2.68325 3.8835 3.28325 3.2835C3.88325 2.6835 4.58881 2.2085 5.39992 1.8585C6.21103 1.5085 7.0777 1.3335 7.99992 1.3335C8.92214 1.3335 9.78881 1.5085 10.5999 1.8585C11.411 2.2085 12.1166 2.6835 12.7166 3.2835C13.3166 3.8835 13.7916 4.58905 14.1416 5.40016C14.4916 6.21127 14.6666 7.07794 14.6666 8.00016C14.6666 8.92238 14.4916 9.78905 14.1416 10.6002C13.7916 11.4113 13.3166 12.1168 12.7166 12.7168C12.1166 13.3168 11.411 13.7918 10.5999 14.1418C9.78881 14.4918 8.92214 14.6668 7.99992 14.6668Z" fill="#CBCCCF"/>
</g>
</svg>
