<svg width="26" height="26" viewBox="0 0 26 26" fill="none" xmlns="http://www.w3.org/2000/svg">
<path d="M13 2.03125C10.8306 2.03125 8.7099 2.67456 6.90609 3.87982C5.10229 5.08508 3.6964 6.79816 2.8662 8.80244C2.036 10.8067 1.81878 13.0122 2.24202 15.1399C2.66525 17.2676 3.70992 19.2221 5.24393 20.7561C6.77793 22.2901 8.73238 23.3348 10.8601 23.758C12.9878 24.1812 15.1933 23.964 17.1976 23.1338C19.2018 22.3036 20.9149 20.8977 22.1202 19.0939C23.3254 17.2901 23.9688 15.1694 23.9688 13C23.9655 10.0919 22.8089 7.30383 20.7525 5.24749C18.6962 3.19114 15.9081 2.03448 13 2.03125ZM14.2188 21.4429V18.6875C14.2188 18.3643 14.0903 18.0543 13.8618 17.8257C13.6332 17.5972 13.3232 17.4687 13 17.4687C12.6768 17.4687 12.3668 17.5972 12.1382 17.8257C11.9097 18.0543 11.7813 18.3643 11.7813 18.6875V21.4429C9.95989 21.1769 8.27302 20.3301 6.97145 19.0286C5.66989 17.727 4.82314 16.0401 4.55711 14.2187H7.3125C7.63574 14.2187 7.94573 14.0903 8.17429 13.8618C8.40285 13.6332 8.53125 13.3232 8.53125 13C8.53125 12.6768 8.40285 12.3668 8.17429 12.1382C7.94573 11.9097 7.63574 11.7812 7.3125 11.7812H4.55711C4.82314 9.95988 5.66989 8.27301 6.97145 6.97145C8.27302 5.66988 9.95989 4.82314 11.7813 4.55711V7.3125C11.7813 7.63573 11.9097 7.94573 12.1382 8.17429C12.3668 8.40285 12.6768 8.53125 13 8.53125C13.3232 8.53125 13.6332 8.40285 13.8618 8.17429C14.0903 7.94573 14.2188 7.63573 14.2188 7.3125V4.55711C16.0401 4.82314 17.727 5.66988 19.0286 6.97145C20.3301 8.27301 21.1769 9.95988 21.4429 11.7812H18.6875C18.3643 11.7812 18.0543 11.9097 17.8257 12.1382C17.5972 12.3668 17.4688 12.6768 17.4688 13C17.4688 13.3232 17.5972 13.6332 17.8257 13.8618C18.0543 14.0903 18.3643 14.2187 18.6875 14.2187H21.4429C21.1769 16.0401 20.3301 17.727 19.0286 19.0286C17.727 20.3301 16.0401 21.1769 14.2188 21.4429Z" fill="#414651"/>
<circle cx="12.9146" cy="12.9998" r="1.08333" fill="#414651"/>
</svg>
