<svg width="194" height="46" viewBox="0 0 194 46" fill="none" xmlns="http://www.w3.org/2000/svg">
<path d="M23.6599 8.62452H47.3196V0H23.6599C10.5908 0 0 10.2952 0 23.0001C0 35.705 10.5908 46 23.6599 46C35.0919 46 44.6323 38.1174 46.8386 27.6371C46.8614 27.5286 46.881 27.4208 46.9006 27.3154C47.1728 25.9246 47.3164 24.4671 47.3164 23.0033V18.6911H23.6566V27.3154H37.7668C35.8811 33.146 30.2793 37.3788 23.6566 37.3788C15.4915 37.3788 8.86873 30.9436 8.86873 23.0033C8.86873 15.0629 15.4883 8.62769 23.6566 8.62769L23.6599 8.62452Z" fill="white"/>
<path d="M76.1654 8.67211L89.4342 8.615V0L76.1654 0.0572928C63.1159 0.0572928 52.535 10.3403 52.535 23.0287C52.535 35.7177 63.1126 46 76.1654 46H89.4342V37.3852H76.1654C68.0101 37.3852 61.3972 30.9563 61.3972 23.0287C61.3972 15.101 68.0101 8.67211 76.1654 8.67211Z" fill="white"/>
<path d="M118.27 0C105.204 0 94.6105 10.2952 94.6105 23.0001C94.6105 35.705 105.201 46 118.27 46C131.339 46 141.93 35.705 141.93 23.0001C141.93 10.2952 131.336 0 118.27 0ZM118.27 37.3725C110.105 37.3725 103.483 30.9373 103.483 22.9969C103.483 15.0566 110.102 8.62135 118.27 8.62135C126.439 8.62135 133.058 15.0566 133.058 22.9969C133.058 30.9373 126.439 37.3725 118.27 37.3725Z" fill="white"/>
<path d="M170.34 0C157.275 0 146.681 10.2952 146.681 23.0001C146.681 35.705 157.271 46 170.34 46C183.41 46 194 35.705 194 23.0001C194 10.2952 183.406 0 170.34 0ZM170.34 37.3725C162.175 37.3725 155.553 30.9373 155.553 22.9969C155.553 15.0566 162.172 8.62135 170.34 8.62135C178.509 8.62135 185.128 15.0566 185.128 22.9969C185.128 30.9373 178.509 37.3725 170.34 37.3725Z" fill="white"/>
</svg>
