<svg width="26" height="26" viewBox="0 0 26 26" fill="none" xmlns="http://www.w3.org/2000/svg">
<path d="M13 18.2812C14.4002 18.2796 15.7425 17.7227 16.7326 16.7326C17.7227 15.7425 18.2796 14.4002 18.2812 13V6.5C18.2812 5.09933 17.7248 3.75602 16.7344 2.76559C15.744 1.77517 14.4007 1.21875 13 1.21875C11.5993 1.21875 10.256 1.77517 9.26559 2.76559C8.27517 3.75602 7.71875 5.09933 7.71875 6.5V13C7.72036 14.4002 8.2773 15.7425 9.26737 16.7326C10.2575 17.7227 11.5998 18.2796 13 18.2812ZM10.1562 6.5C10.1562 5.74579 10.4559 5.02247 10.9892 4.48917C11.5225 3.95586 12.2458 3.65625 13 3.65625C13.7542 3.65625 14.4775 3.95586 15.0108 4.48917C15.5441 5.02247 15.8438 5.74579 15.8438 6.5V13C15.8438 13.7542 15.5441 14.4775 15.0108 15.0108C14.4775 15.5441 13.7542 15.8438 13 15.8438C12.2458 15.8438 11.5225 15.5441 10.9892 15.0108C10.4559 14.4775 10.1562 13.7542 10.1562 13V6.5ZM14.2188 22.2645V24.375C14.2188 24.6982 14.0903 25.0082 13.8618 25.2368C13.6332 25.4653 13.3232 25.5938 13 25.5938C12.6768 25.5938 12.3668 25.4653 12.1382 25.2368C11.9097 25.0082 11.7812 24.6982 11.7812 24.375V22.2645C9.53473 21.9659 7.47289 20.8622 5.9786 19.1584C4.48432 17.4545 3.65912 15.2663 3.65625 13C3.65625 12.6768 3.78465 12.3668 4.01321 12.1382C4.24177 11.9097 4.55177 11.7812 4.875 11.7812C5.19823 11.7812 5.50823 11.9097 5.73679 12.1382C5.96535 12.3668 6.09375 12.6768 6.09375 13C6.09375 14.8317 6.82137 16.5883 8.11654 17.8835C9.41172 19.1786 11.1683 19.9062 13 19.9062C14.8317 19.9062 16.5883 19.1786 17.8835 17.8835C19.1786 16.5883 19.9062 14.8317 19.9062 13C19.9062 12.6768 20.0347 12.3668 20.2632 12.1382C20.4918 11.9097 20.8018 11.7812 21.125 11.7812C21.4482 11.7812 21.7582 11.9097 21.9868 12.1382C22.2153 12.3668 22.3438 12.6768 22.3438 13C22.3409 15.2663 21.5157 17.4545 20.0214 19.1584C18.5271 20.8622 16.4653 21.9659 14.2188 22.2645Z" fill="#414651"/>
</svg>
