<svg width="72" height="73" viewBox="0 0 72 73" fill="none" xmlns="http://www.w3.org/2000/svg">
<path d="M35.9996 0C13.4921 0 -4.19138 20.9424 0.871728 44.656C3.50697 56.9989 15.7818 69.4438 27.9557 72.1163C51.3445 77.2494 72 59.3203 72 36.5004V0H35.9996ZM35.9996 65.3969C20.0068 65.3969 7.08982 52.0407 7.51026 35.7295C7.91348 20.0226 20.8074 7.60375 36.302 7.60375H64.5006V18.2502H36.0083C25.9224 18.2502 17.7748 26.6599 18.0138 36.9413C18.2413 46.6854 26.1268 54.6045 35.7376 54.7476C43.1163 54.8586 49.4926 50.4638 52.3727 44.1041H63.4983C60.2064 56.374 49.1442 65.3969 35.9996 65.3969ZM64.5092 36.5004H53.9999V25.8451H64.5092V36.5004Z" fill="#26C86E"/>
</svg>
